HIERARCHY
ROOT Hips
{
	OFFSET 0.00000 0.00000 0.00000
	CHANNELS 6 Xposition Yposition Zposition Zrotation Yrotation Xrotation 
	JOINT LHipJoint
	{
		OFFSET 0 0 0
		CHANNELS 3 Zrotation Yrotation Xrotation
		JOINT LeftUpLeg
		{
			OFFSET 2.36090 -1.39315 1.24752
			CHANNELS 3 Zrotation Yrotation Xrotation
			JOINT LeftLeg
			{
				OFFSET 2.06810 -5.68207 0.00000
				CHANNELS 3 Zrotation Yrotation Xrotation
				JOINT LeftFoot
				{
					OFFSET 2.46631 -6.77613 0.00000
					CHANNELS 3 Zrotation Yrotation Xrotation
					JOINT LeftToeBase
					{
						OFFSET 0.26031 -0.71520 1.99545
						CHANNELS 3 Zrotation Yrotation Xrotation
						End Site
						{
							OFFSET 0.00000 -0.00000 1.05957
						}
					}
				}
			}
		}
	}
	JOINT RHipJoint
	{
		OFFSET 0 0 0
		CHANNELS 3 Zrotation Yrotation Xrotation
		JOINT RightUpLeg
		{
			OFFSET -2.25243 -1.39315 1.24752
			CHANNELS 3 Zrotation Yrotation Xrotation
			JOINT RightLeg
			{
				OFFSET -2.17343 -5.97145 0.00000
				CHANNELS 3 Zrotation Yrotation Xrotation
				JOINT RightFoot
				{
					OFFSET -2.52372 -6.93386 0.00000
					CHANNELS 3 Zrotation Yrotation Xrotation
					JOINT RightToeBase
					{
						OFFSET -0.22538 -0.61923 2.11447
						CHANNELS 3 Zrotation Yrotation Xrotation
						End Site
						{
							OFFSET -0.00000 -0.00000 1.10506
						}
					}
				}
			}
		}
	}
	JOINT LowerBack
	{
		OFFSET 0 0 0
		CHANNELS 3 Zrotation Yrotation Xrotation
		JOINT Spine
		{
			OFFSET 0.01594 2.13103 0.08007
			CHANNELS 3 Zrotation Yrotation Xrotation
			JOINT Spine1
			{
				OFFSET 0.01393 2.09723 0.18338
				CHANNELS 3 Zrotation Yrotation Xrotation
				JOINT Neck
				{
					OFFSET 0 0 0
					CHANNELS 3 Zrotation Yrotation Xrotation
					JOINT Neck1
					{
						OFFSET 0.05351 1.38915 0.32494
						CHANNELS 3 Zrotation Yrotation Xrotation
						JOINT Head
						{
							OFFSET 0.00711 1.45992 -0.21666
							CHANNELS 3 Zrotation Yrotation Xrotation
							End Site
							{
								OFFSET -0.00433 1.47702 -0.11056
							}
						}
					}
				}
				JOINT LeftShoulder
				{
					OFFSET 0 0 0
					CHANNELS 3 Zrotation Yrotation Xrotation
					JOINT LeftArm
					{
						OFFSET 2.87198 0.92249 0.11132
						CHANNELS 3 Zrotation Yrotation Xrotation
						JOINT LeftForeArm
						{
							OFFSET 5.52731 -0.00000 0.00000
							CHANNELS 3 Zrotation Yrotation Xrotation
							JOINT LeftHand
							{
								OFFSET 3.11059 -0.00000 0.00000
								CHANNELS 3 Zrotation Yrotation Xrotation
								JOINT LeftFingerBase
								{
									OFFSET 0 0 0
									CHANNELS 3 Zrotation Yrotation Xrotation
									JOINT LeftHandIndex1
									{
										OFFSET 0.41963 -0.00000 0.00000
										CHANNELS 3 Zrotation Yrotation Xrotation
										End Site
										{
											OFFSET 0.33831 -0.00000 0.00000
										}
									}
								}
								JOINT LThumb
								{
									OFFSET 0 0 0
									CHANNELS 3 Zrotation Yrotation Xrotation
									End Site
									{
										OFFSET 0.34348 -0.00000 0.34348
									}
								}
							}
						}
					}
				}
				JOINT RightShoulder
				{
					OFFSET 0 0 0
					CHANNELS 3 Zrotation Yrotation Xrotation
					JOINT RightArm
					{
						OFFSET -2.94710 0.68072 0.32187
						CHANNELS 3 Zrotation Yrotation Xrotation
						JOINT RightForeArm
						{
							OFFSET -5.25396 -0.00000 -0.00000
							CHANNELS 3 Zrotation Yrotation Xrotation
							JOINT RightHand
							{
								OFFSET -3.10567 -0.00000 0.00000
								CHANNELS 3 Zrotation Yrotation Xrotation
								JOINT RightFingerBase
								{
									OFFSET 0 0 0
									CHANNELS 3 Zrotation Yrotation Xrotation
									JOINT RightHandIndex1
									{
										OFFSET -0.49868 -0.00000 0.00000
										CHANNELS 3 Zrotation Yrotation Xrotation
										End Site
										{
											OFFSET -0.40204 -0.00000 0.00000
										}
									}
								}
								JOINT RThumb
								{
									OFFSET 0 0 0
									CHANNELS 3 Zrotation Yrotation Xrotation
									End Site
									{
										OFFSET -0.40818 -0.00000 0.40818
									}
								}
							}
						}
					}
				}
			}
		}
	}
}
MOTION
Frames: 9
Frame Time: 0.0232558
0.00 0.00 0.00 0 0 0 0 0 0 -21 0 0 0 0 0 0 0 0 0 0 0 0 0 0 21 0 0 0 0 0 0 0 0 0 0 0 0 0 0 0 0 0 0 0 0 0 0 -16 0 0 21 0 0 11 0 0 0 -8 0 0 0 0 0 0 0 0 0 0 0 0 0 0 0 0 0 0 0 0 8 0 0 0 0 0 0 0 0 0 0 0 0 0 0 0 0 0
0.00 0.00 0.00 -179.7000 3.9768 -137.5240 0.0000 0.0000 0.0000 -9.9665 -14.3709 -86.0333 12.5956 18.6312 67.8647 1.4148 -9.1986 -21.3289 0.0004 -0.1243 -0.3415 0.0000 0.0000 0.0000 11.1746 14.2070 -89.1897 -14.5058 -19.2603 73.7432 -1.9428 -1.9152 -27.0916 -0.1244 2.2739 -6.2633 -1.9240 1.7290 2.2563 -3.0544 2.3939 1.6329 -2.0968 1.2451 0.4644 4.1679 3.8880 -29.5285 -3.8169 4.3510 14.6100 -1.3174 1.7616 9.5446 0.0000 -0.0000 0.0000 -71.4287 -26.4561 43.6741 18.3975 -28.6631 -4.7384 -0.0000 0.0000 -39.7706 34.3879 -7.6526 -5.2075 -7.1250 0.0000 -0.0000 5.4515 20.7509 -3.1806 0.0000 -0.0000 0.0000 74.2108 27.9377 38.6779 -28.3912 39.4739 -10.3714 0.0000 -0.0000 -12.1633 -16.4897 -17.3062 5.0324 7.1250 -0.0000 -0.0000 10.9980 -47.6734 -0.7339
0.00 0.00 0.00 -178.7310 5.6327 -138.6260 0.0000 0.0000 0.0000 -11.6311 -4.7687 -98.3296 19.1846 19.9841 87.6152 1.3236 -19.6132 -23.1555 0.5621 4.8022 13.3452 0.0000 0.0000 0.0000 17.2273 9.6157 -99.2847 -20.2150 -19.9989 90.6285 -2.7407 9.6242 -29.8382 -0.0087 -0.6007 1.6507 -1.2404 1.5341 21.8330 -1.7225 2.6379 6.1559 -1.8670 1.6959 -5.4211 2.7341 3.4977 -39.1725 -3.0319 2.6799 8.6927 -1.1314 0.5213 8.6610 -0.0000 0.0000 0.0000 -63.2006 -52.2596 44.2167 19.0118 -29.4334 -5.0367 -0.0000 0.0000 -38.7039 36.2751 -8.4229 -6.1358 -7.1250 0.0000 -0.0000 6.6979 19.6086 -4.0895 -0.0000 0.0000 0.0000 62.7777 56.6244 30.7474 -17.2799 27.2252 -4.2146 0.0000 -0.0000 -3.5774 -26.1810 -13.8723 6.7228 7.1250 -0.0000 -0.0000 1.1691 -45.3632 -0.0105
0.00 0.00 0.00 -179.0540 6.1441 -139.1170 0.0000 0.0000 0.0000 -12.4377 -1.2239 -103.0180 22.0616 19.8978 96.0377 1.0606 -24.2806 -23.6525 1.0895 6.6334 18.6339 0.0000 0.0000 0.0000 18.9955 7.0343 -103.7030 -23.0463 -19.7760 98.9388 -3.0083 15.2120 -31.5590 -0.2423 -3.1678 8.7463 -3.8693 1.2254 34.4194 -0.5998 2.3034 8.2979 0.4495 1.9266 -8.3263 3.3585 2.5046 -45.7296 -2.6053 3.9819 7.1514 -0.6316 2.4083 8.8521 -0.0000 0.0000 0.0000 -45.8569 -71.2395 26.2741 15.9618 -25.4689 -3.6295 -0.0000 0.0000 -36.0328 34.6668 -6.2991 -4.3392 -7.1250 0.0000 -0.0000 5.7977 22.3484 -3.1736 -0.0000 0.0000 0.0000 44.0586 72.8814 11.0701 -14.1484 22.9465 -2.8857 0.0000 0.0000 0.5340 -30.7724 -12.7824 7.5053 7.1250 -0.0000 -0.0000 -3.2360 -44.7466 -0.0203
0.00 0.00 0.00 -178.9300 6.7362 -117.0100 0.0000 0.0000 0.0000 -8.3277 -5.1496 -137.2506 26.0291 19.1052 107.8845 1.0758 -21.8217 -22.5728 1.2409 7.0636 19.9041 0.0000 0.0000 0.0000 12.0550 14.1872 -137.6139 -26.5436 -18.9408 109.4627 -2.6059 13.5595 -29.2396 -0.3613 -3.8613 10.6868 -4.1393 0.5168 11.5854 -0.7764 0.8483 6.1631 1.4250 0.5696 -0.0794 4.0274 3.5742 -48.0926 -2.4992 5.1457 6.9568 -0.4418 3.0707 9.0479 0.0000 0.0000 0.0000 -14.4549 -76.9422 -7.3631 14.4793 -23.4157 -3.0160 -0.0000 0.0000 -30.9427 36.7343 -10.3053 -7.6046 -7.1250 0.0000 -0.0000 6.7659 17.2519 -4.4865 0.0000 0.0000 0.0000 22.6386 79.8026 -9.8909 -13.9351 22.6419 -2.8031 0.0000 0.0000 2.1813 -33.1057 -10.7209 6.9159 7.1250 -0.0000 -0.0000 -5.4688 -42.6509 -0.3180
0.00 0.00 0.00 -178.2860 7.1635 -113.1970 0.0000 0.0000 0.0000 -7.7140 -4.4171 -143.0408 26.9685 18.7935 110.7766 1.1910 -21.7064 -23.2076 1.1835 6.9040 19.4314 0.0000 0.0000 0.0000 11.2277 15.5006 -142.8520 -27.1966 -18.7100 111.4861 -2.5905 14.1640 -29.2181 -0.4382 -4.2479 11.7751 -4.5858 0.2777 10.4413 -1.0538 0.5307 6.2407 1.4349 0.3795 0.6428 4.7583 4.2163 -50.3279 -2.4812 5.6509 7.4911 -0.4404 3.3924 9.0859 0.0000 -0.0000 0.0000 12.7583 -76.8764 -36.1305 13.8938 -22.5827 -2.7872 -0.0000 0.0000 -26.8085 40.3020 -15.3226 -12.6324 -7.1250 0.0000 -0.0000 8.3212 10.3810 -6.7591 0.0000 -0.0000 0.0000 -8.9197 82.0634 -41.4983 -13.8162 22.4713 -2.7575 0.0000 0.0000 3.8161 -36.0579 -9.4546 6.8202 7.1250 -0.0000 -0.0000 -8.1334 -41.4815 -0.7111
0.00 0.00 0.00 -177.7700 7.2421 -110.2590 0.0000 0.0000 0.0000 -6.9406 -3.9532 -146.7893 27.4855 18.5998 112.3895 1.3216 -21.5425 -23.9034 1.1467 6.7996 19.1229 0.0000 0.0000 0.0000 10.7895 16.4327 -146.2084 -27.5495 -18.5746 112.5903 -2.6223 14.4995 -29.4310 -0.4546 -4.3252 11.9933 -4.9907 -0.0433 9.9295 -1.0790 0.0697 6.1460 1.6810 0.1241 0.8532 5.3954 4.8933 -51.4511 -2.6627 6.2485 7.3417 -0.4727 3.7110 9.1413 -0.0000 -0.0000 0.0000 28.4450 -74.5877 -53.6178 13.2288 -21.6216 -2.5370 -0.0000 0.0000 -21.8677 44.1072 -19.2251 -17.7018 -7.1250 0.0000 -0.0000 9.8892 4.4026 -9.2423 -0.0000 -0.0000 0.0000 -39.1430 81.7931 -71.7249 -13.6860 22.2841 -2.7079 0.0000 0.0000 5.5536 -38.7789 -8.2836 6.6026 7.1250 -0.0000 -0.0000 -10.4998 -40.3385 -1.2221
0.00 0.00 0.00 -176.6160 7.4719 -105.4930 0.0000 0.0000 0.0000 -5.7075 -2.7012 -151.4455 28.1094 18.3440 114.3585 1.5950 -21.4818 -25.4367 0.7586 5.5623 15.5196 0.0000 0.0000 0.0000 10.2603 18.2561 -150.1597 -27.8439 -18.4559 113.5173 -2.7350 14.9932 -30.0996 -0.4287 -4.2021 11.6460 -6.0717 -0.3169 9.6848 -1.0464 -0.4322 5.7894 2.3637 -0.1657 0.6680 6.1540 5.6316 -53.2190 -2.7643 6.8611 7.0944 -0.4770 4.0819 9.1964 -0.0000 -0.0000 0.0000 41.7690 -69.8260 -70.4794 12.3148 -20.2751 -2.2102 -0.0000 0.0000 -16.7833 49.8204 -23.6420 -25.4024 -7.1250 0.0000 -0.0000 12.1094 -3.5068 -13.1165 -0.0000 -0.0000 0.0000 -68.7582 77.4366 -101.6726 -13.5307 22.0598 -2.6493 0.0000 0.0000 8.7308 -41.6748 -6.6536 5.8888 7.1250 -0.0000 -0.0000 -12.8613 -38.5514 -2.0837
0.00 0.00 0.00 -188.0700 3.9762 -92.2049 0.0000 0.0000 0.0000 -4.6583 -10.8844 -138.0493 25.6825 19.2075 106.8283 1.1753 -18.2641 -21.7213 4.1058 -12.2999 -36.8013 0.0000 0.0000 0.0000 1.7365 11.0194 -144.2606 -26.9918 -18.7851 110.8490 -5.2646 4.3149 -42.7778 -0.7946 5.6899 -15.8872 -5.0983 -0.2731 15.0825 -1.4690 -1.8939 7.9495 1.6091 -1.3646 0.0632 -2.4049 1.5303 -57.5866 -0.0122 -0.7359 4.2973 -0.0535 -2.0253 8.1444 0.0000 -0.0000 0.0000 61.2933 -68.4548 -76.3266 19.1324 -29.5828 -5.0960 -0.0000 0.0000 -23.5668 83.4882 -39.0467 -79.7298 -7.1250 0.0000 -0.0000 24.6254 -48.3224 -35.6587 0.0000 -0.0000 0.0000 -66.7413 50.0327 -112.7076 -10.9093 18.1491 -1.7476 0.0000 0.0000 16.0776 -54.5550 -14.2457 19.0699 7.1250 -0.0000 -0.0000 -28.1731 -51.3419 4.7179
